<svg height="512" viewBox="0 0 48 48" width="512" xmlns="http://www.w3.org/2000/svg"><g id="Writing"><path d="m37 30a1 1 0 0 0 -1 1v9a3 3 0 0 1 -3 3h-22a3 3 0 0 1 -3-3v-32a3 3 0 0 1 3-3h22a2.976 2.976 0 0 1 2.924 2.338 1 1 0 0 0 1.952-.438 4.965 4.965 0 0 0 -4.876-3.9h-22a5.006 5.006 0 0 0 -5 5v32a5.006 5.006 0 0 0 5 5h22a5.006 5.006 0 0 0 5-5v-9a1 1 0 0 0 -1-1z"/><path d="m42.5 10.585-.866-.5a3 3 0 0 0 -4.1 1.1l-11.644 20.169a5.013 5.013 0 0 0 -.661 2.2l-.159 2.646a2 2 0 0 0 3.1 1.789l2.208-1.457a5.041 5.041 0 0 0 1.575-1.673l11.647-20.176a3 3 0 0 0 -1.1-4.098zm-12.28 23.269a3.009 3.009 0 0 1 -.946 1l-2.208 1.457.159-2.641a3.014 3.014 0 0 1 .4-1.32l9.645-16.707 2.6 1.5zm11.646-20.171-1 1.732-2.6-1.5 1-1.732a1 1 0 0 1 1.367-.367l.866.5a1 1 0 0 1 .367 1.367z"/><path d="m33 12a1 1 0 0 0 -1-1h-16a1 1 0 0 0 0 2h16a1 1 0 0 0 1-1z"/><path d="m31.13 18a1 1 0 0 0 -1-1h-17.13a1 1 0 0 0 0 2h17.13a1 1 0 0 0 1-1z"/><path d="m27.67 24a1 1 0 0 0 -1-1h-13.67a1 1 0 0 0 0 2h13.67a1 1 0 0 0 1-1z"/><path d="m24.21 30a1 1 0 0 0 -1-1h-10.21a1 1 0 0 0 0 2h10.21a1 1 0 0 0 1-1z"/><path d="m13 35a1 1 0 0 0 0 2h9.08a1 1 0 0 0 0-2z"/></g></svg>