<svg fill="#1cbfaa"  id="Layer_1" data-name="Layer 1" xmlns="http://www.w3.org/2000/svg" viewBox="0 0 42 43"><defs></defs><title>checkmark-round-orange</title>
<path  d="M19.13,33.94A13.06,13.06,0,1,1,26.18,9.88a.9.9,0,0,1,.27,1.23.88.88,0,0,1-1.23.27,11.28,11.28,0,1,0,5.19,9.5c0-.37,0-.74-.05-1.1a.89.89,0,1,1,1.77-.18c0,.42.06.85.06,1.28A13.08,13.08,0,0,1,19.13,33.94Z"/><path  d="M20.62,23.85a.86.86,0,0,1-.63-.27l-5.34-5.34A.89.89,0,0,1,15.91,17l4.71,4.72L33.05,9.27a.89.89,0,1,1,1.26,1.26L21.25,23.59A.91.91,0,0,1,20.62,23.85Z"/></svg>